<?xml version="1.0" encoding="UTF-8" standalone="no" ?>
<!DOCTYPE svg PUBLIC "-//W3C//DTD SVG 1.1//EN" "http://www.w3.org/Graphics/SVG/1.1/DTD/svg11.dtd">
<svg xmlns="http://www.w3.org/2000/svg" xmlns:xlink="http://www.w3.org/1999/xlink" version="1.1" width="1080" height="1080" viewBox="0 0 1080 1080" xml:space="preserve">
<desc>Created with Fabric.js 5.2.4</desc>
<defs>
</defs>
<g transform="matrix(1 0 0 1 540 540)" id="76c1aafa-00ff-462d-8d6a-3cad92f948f8"  >
</g>
<g transform="matrix(1 0 0 1 540 540)" id="4411fe30-eddf-42e0-aee6-e5a000bc2d87"  >
<rect style="stroke: none; stroke-width: 1; stroke-dasharray: none; stroke-linecap: butt; stroke-dashoffset: 0; stroke-linejoin: miter; stroke-miterlimit: 4; fill: rgb(255,255,255); fill-rule: nonzero; opacity: 1; visibility: hidden;" vector-effect="non-scaling-stroke"  x="-540" y="-540" rx="0" ry="0" width="1080" height="1080" />
</g>
<g transform="matrix(1 0 0 1 540 540)"  >
<g style="" vector-effect="non-scaling-stroke"   >
		<g transform="matrix(1 0 0 1 -250.29 -84.64)"  >
<path style="stroke: none; stroke-width: 1; stroke-dasharray: none; stroke-linecap: butt; stroke-dashoffset: 0; stroke-linejoin: miter; stroke-miterlimit: 4; fill: rgb(228,0,38); fill-rule: nonzero; opacity: 1;" vector-effect="non-scaling-stroke"  transform=" translate(-253.03, -202.42)" d="M 329.5415 301.24 C 329.9215 301.47 330.1415 301.97 330.75149999999996 302.76 C 323.19149999999996 301.96999999999997 316.63149999999996 299.25 309.9815 296.93 C 288.25149999999996 289.34000000000003 267.0715 280.64 247.83149999999998 267.66 C 225.4115 252.54000000000002 207.67149999999998 233.20000000000002 195.2815 209.27000000000004 C 179.5515 178.87000000000003 172.26149999999998 146.63000000000005 176.48149999999998 112.27000000000004 C 176.6315 111.11000000000004 176.7515 109.96000000000004 176.8415 108.80000000000004 C 177.2715 103.03000000000004 179.1615 101.39000000000004 184.8515 102.33000000000004 C 194.0615 103.85000000000004 203.14149999999998 105.85000000000004 211.89149999999998 109.27000000000004 C 230.74149999999997 116.65000000000003 248.62149999999997 125.82000000000004 264.37149999999997 138.67000000000004 C 269.5515 142.91000000000005 274.38149999999996 147.70000000000005 279.37149999999997 154.20000000000005 C 270.64149999999995 150.57000000000005 263.21149999999994 147.38000000000005 255.71149999999997 144.38000000000005 C 240.19149999999996 138.17000000000004 224.06149999999997 134.23000000000005 207.59149999999997 131.51000000000005 C 203.88149999999996 130.90000000000003 202.62149999999997 131.61000000000004 202.76149999999996 135.63000000000005 C 204.06149999999997 174.58000000000004 217.45149999999995 208.82000000000005 243.44149999999996 237.74000000000007 C 263.68149999999997 260.2700000000001 289.09149999999994 276.3500000000001 314.6115 292.14000000000004 C 319.5715 295.21 324.5815 298.19 329.5415 301.24 z" stroke-linecap="round" />
</g>
		<g transform="matrix(1 0 0 1 -312.29 -54.16)"  >
<path style="stroke: none; stroke-width: 1; stroke-dasharray: none; stroke-linecap: butt; stroke-dashoffset: 0; stroke-linejoin: miter; stroke-miterlimit: 4; fill: rgb(228,0,38); fill-rule: nonzero; opacity: 1;" vector-effect="non-scaling-stroke"  transform=" translate(-191.03, -232.9)" d="M 247.2815 285.15 C 247.4915 285.27 247.51149999999998 285.7 247.6415 286.06 C 246.2815 287.36 244.5115 286.94 242.9615 286.96 C 222.0915 287.28 201.3515 286.28 181.0215 281.03999999999996 C 154.0015 274.09 132.6415 249.92999999999995 134.5415 218.82999999999996 C 135.2715 206.86999999999995 135.7615 194.91999999999996 137.82150000000001 183.08999999999995 C 138.10150000000002 181.49999999999994 137.66150000000002 179.49999999999994 139.75150000000002 178.91999999999996 C 142.00150000000002 178.28999999999996 142.93150000000003 180.14999999999995 144.02150000000003 181.61999999999995 C 160.94150000000002 204.53999999999996 178.78150000000002 226.69999999999993 197.58150000000003 248.10999999999996 C 210.77150000000003 263.12999999999994 226.33150000000003 274.78 244.23150000000004 283.46 C 245.2715 283.96 246.2915 284.54 247.2815 285.15 z" stroke-linecap="round" />
</g>
		<g transform="matrix(1 0 0 1 -358.28 146.12)"  >
<path style="stroke: none; stroke-width: 1; stroke-dasharray: none; stroke-linecap: butt; stroke-dashoffset: 0; stroke-linejoin: miter; stroke-miterlimit: 4; fill: rgb(228,0,38); fill-rule: nonzero; opacity: 1;" vector-effect="non-scaling-stroke"  transform=" translate(-145.05, -433.19)" d="M 239.3115 468.6 C 240.4315 468.64000000000004 241.54149999999998 468.92 243.3915 469.20000000000005 C 240.4815 471.63000000000005 237.5615 472.38000000000005 234.72150000000002 472.85 C 197.59150000000002 479.11 160.56150000000002 481.39000000000004 124.00150000000002 469.39000000000004 C 106.18150000000003 463.54 90.98150000000001 453.05000000000007 75.94150000000002 442.21000000000004 C 64.99150000000002 434.33000000000004 56.03150000000002 424.63000000000005 48.16150000000002 413.77000000000004 C 46.11150000000002 410.94000000000005 45.91150000000002 409.36 49.63150000000002 407.57000000000005 C 67.25150000000002 399.06000000000006 85.49150000000002 392.47 104.71150000000002 388.71000000000004 C 106.03150000000001 388.45000000000005 107.63150000000002 387.91 108.29150000000001 389.41 C 108.99150000000002 391.01000000000005 107.20150000000001 391.64000000000004 106.27150000000002 392.41 C 98.79150000000001 398.52000000000004 91.25150000000002 404.56 83.73150000000001 410.62 C 82.04150000000001 411.98 80.68150000000001 413.06 83.3015 415.14 C 109.7415 436.18 138.7415 452.03999999999996 172.1615 458.69 C 194.3615 463.11 216.5815 467.62 239.3115 468.6 z" stroke-linecap="round" />
</g>
		<g transform="matrix(1 0 0 1 -220.86 70.45)"  >
<path style="stroke: none; stroke-width: 1; stroke-dasharray: none; stroke-linecap: butt; stroke-dashoffset: 0; stroke-linejoin: miter; stroke-miterlimit: 4; fill: rgb(228,0,38); fill-rule: nonzero; opacity: 1;" vector-effect="non-scaling-stroke"  transform=" translate(-282.46, -357.52)" d="M 458.3115 410.22 C 455.17150000000004 410.22 453.47150000000005 408.75 451.8315 407.56 C 435.5615 395.71 417.6015 386.86 399.2015 379.07 C 381.1815 371.45 362.0715 367.39 342.6615 364.96999999999997 C 309.9115 360.89 276.9615 359.29999999999995 244.0915 356.78 C 225.1515 355.33 207.3915 349.17999999999995 189.8715 342.03999999999996 C 175.9015 336.34 162.8715 329.12999999999994 150.3315 320.87999999999994 C 148.9615 319.97999999999996 147.32150000000001 317.7799999999999 145.6815 319.0899999999999 C 143.7915 320.6099999999999 145.4015 322.8699999999999 146.1615 324.5999999999999 C 153.3715 341.0599999999999 164.2515 355.2499999999999 174.1315 370.0799999999999 C 195.8215 402.62999999999994 225.55149999999998 424.5999999999999 262.2015 437.4699999999999 C 278.1915 443.0899999999999 294.8715 445.2499999999999 311.7115 446.38999999999993 C 325.3215 447.31999999999994 338.9215 448.35999999999996 352.5415 447.35999999999996 C 318.0715 456.83 283.6615 459.52 248.29149999999998 451.96999999999997 C 212.5315 444.33 182.8215 426.66999999999996 157.64149999999998 401.26 C 124.66149999999999 367.98 108.19149999999998 327.24 106.81149999999998 280.4 C 106.63149999999997 274.40999999999997 106.37149999999998 268.40999999999997 107.10149999999999 262.42999999999995 C 107.22149999999999 261.46999999999997 107.59149999999998 260.53 108.09149999999998 258.69999999999993 C 113.72149999999998 264.56999999999994 119.20149999999998 269.74999999999994 124.73149999999998 274.86999999999995 C 143.26149999999998 292.0199999999999 165.29149999999998 300.43999999999994 190.25149999999996 302.09999999999997 C 221.82149999999996 304.18999999999994 253.43149999999997 305.98999999999995 284.7215 310.97999999999996 C 309.06149999999997 314.85999999999996 333.4415 318.52 357.1515 325.58 C 371.8115 329.94 384.2715 338.44 396.1415 347.5 C 417.1415 363.53 434.8815 383.03 452.2515 402.82 C 454.1915 405.02 455.9815 407.36 458.3115 410.22 z" stroke-linecap="round" />
</g>
		<g transform="matrix(1 0 0 1 -118.34 198.59)"  >
<path style="stroke: none; stroke-width: 1; stroke-dasharray: none; stroke-linecap: butt; stroke-dashoffset: 0; stroke-linejoin: miter; stroke-miterlimit: 4; fill: rgb(228,0,38); fill-rule: nonzero; opacity: 1;" vector-effect="non-scaling-stroke"  transform=" translate(-384.99, -485.66)" d="M 473.6615 424.59 C 470.5815 428.63 467.2815 430.38 464.37149999999997 432.54999999999995 C 461.44149999999996 434.72999999999996 458.44149999999996 436.85999999999996 455.31149999999997 438.75999999999993 C 434.52149999999995 451.35999999999996 413.62149999999997 463.75999999999993 391.9115 474.7799999999999 C 378.9115 481.37999999999994 365.2215 484.99999999999994 350.8315 486.38999999999993 C 348.3415 486.62999999999994 345.8515 486.85999999999996 343.3715 487.17999999999995 C 342.28150000000005 487.31999999999994 340.80150000000003 487.09 340.48150000000004 488.53 C 340.22150000000005 489.65999999999997 341.42150000000004 490.19 342.1815 490.78 C 352.7515 499.11999999999995 364.42150000000004 505.15999999999997 377.36150000000004 509.17999999999995 C 406.28150000000005 518.14 430.05150000000003 507.50999999999993 451.79150000000004 489.94999999999993 C 466.92150000000004 477.7199999999999 478.6815 462.2799999999999 489.8115 446.4099999999999 C 490.4615 445.4899999999999 491.17150000000004 444.6099999999999 492.5115 442.8499999999999 C 495.36150000000004 459.6699999999999 491.7815 474.0899999999999 483.05150000000003 487.1699999999999 C 471.40150000000006 504.6199999999999 457.8115 520.18 439.4415 531.1199999999999 C 426.42150000000004 538.8699999999999 412.0615 542.2899999999998 397.5015 544.9999999999999 C 366.28150000000005 550.7899999999998 338.23150000000004 541.4799999999999 311.7615 525.8199999999999 C 302.2715 520.2099999999999 294.7715 512.3599999999999 289.4115 502.7199999999999 C 285.1315 495.0199999999999 281.43149999999997 486.9899999999999 277.3815 479.1599999999999 C 275.5715 475.6599999999999 276.5615 474.3099999999999 280.4115 474.3099999999999 C 289.9015 474.2999999999999 299.4015 474.2899999999999 308.9015 474.0399999999999 C 336.3115 473.3199999999999 362.6015 466.8199999999999 388.5415 458.4899999999999 C 416.18149999999997 449.6199999999999 443.0415 438.82999999999987 469.3215 426.5499999999999 C 470.3515 426.07 471.4015 425.61 473.6615 424.59 z" stroke-linecap="round" />
</g>
		<g transform="matrix(1 0 0 1 116.26 198.29)"  >
<path style="stroke: none; stroke-width: 1; stroke-dasharray: none; stroke-linecap: butt; stroke-dashoffset: 0; stroke-linejoin: miter; stroke-miterlimit: 4; fill: rgb(228,0,38); fill-rule: nonzero; opacity: 1;" vector-effect="non-scaling-stroke"  transform=" translate(-619.58, -485.36)" d="M 728.8215 472.99 C 730.6215 475.46000000000004 727.8015 478.38 726.3116 480.49 C 713.3116 498.84000000000003 700.6516 517.75 681.2716 530.08 C 662.3316 542.14 641.4016 548.34 618.6616 547.4000000000001 C 609.1716 547.0100000000001 599.6416 547.2300000000001 590.2716 545.5100000000001 C 566.8216 541.2200000000001 548.2716 528.4600000000002 532.3516000000001 511.3900000000001 C 522.1916000000001 500.5000000000001 514.9316000000001 487.8700000000001 511.1516000000001 473.3900000000001 C 508.42160000000007 462.9100000000001 510.2216000000001 452.5700000000001 512.3116000000001 441.7800000000001 C 514.8516000000001 442.7200000000001 516.6816000000001 444.1400000000001 517.5016000000002 446.06000000000006 C 523.6216000000002 460.2800000000001 535.3215000000001 469.9200000000001 545.4415000000001 480.93000000000006 C 562.6715000000002 499.69000000000005 583.8415000000001 507.24000000000007 609.0815000000001 505.8500000000001 C 624.9315000000001 504.9800000000001 640.2815000000002 503.19000000000005 654.3515000000001 495.3200000000001 C 655.7315000000001 494.5500000000001 658.1315000000001 494.2500000000001 657.8415000000001 492.3300000000001 C 657.5715000000001 490.5300000000001 655.2515000000001 490.5000000000001 653.6615000000002 490.2100000000001 C 622.5915000000001 484.5300000000001 595.0715000000001 470.9500000000001 569.3515000000002 453.0400000000001 C 557.8315000000002 445.0200000000001 546.8215000000002 436.4700000000001 536.6015000000002 426.88000000000005 C 535.7815000000002 426.11000000000007 534.6315000000002 425.5400000000001 534.7515000000002 423.2300000000001 C 540.3615000000002 425.25000000000006 545.8015000000001 427.01000000000005 551.0815000000002 429.1500000000001 C 576.0915000000002 439.2500000000001 600.5215000000003 450.8300000000001 626.0015000000002 459.7500000000001 C 656.8115000000001 470.5300000000001 688.2915000000002 476.92000000000013 721.1914000000002 472.35000000000014 C 723.7715 471.99 727.4215 471.08 728.8215 472.99 z" stroke-linecap="round" />
</g>
		<g transform="matrix(1 0 0 1 358.24 144.65)"  >
<path style="stroke: none; stroke-width: 1; stroke-dasharray: none; stroke-linecap: butt; stroke-dashoffset: 0; stroke-linejoin: miter; stroke-miterlimit: 4; fill: rgb(228,0,38); fill-rule: nonzero; opacity: 1;" vector-effect="non-scaling-stroke"  transform=" translate(-861.57, -431.71)" d="M 765.8915 470.94 C 764.9815 470.66 764.0915 470.29 763.1914999999999 469.96 C 763.2114999999999 469.51 763.2314999999999 469.06 763.2414999999999 468.62 C 769.9914999999999 468.13 776.7414999999999 467.55 783.4914999999999 467.18 C 812.7914999999998 465.57 841.3014999999998 459.88 869.0314999999998 450.41 C 884.0314999999998 445.29 896.5014999999999 435.51000000000005 909.6814999999998 427.1 C 915.4814999999998 423.40000000000003 920.3614999999998 418.62 925.4614999999998 414.09000000000003 C 928.4714999999998 411.41 928.3114999999998 409.32000000000005 925.2114999999998 406.87 C 917.5214999999997 400.76 909.9414999999998 394.5 902.3314999999998 388.3 C 901.0614999999998 387.27000000000004 899.5514999999998 386.45 898.7614999999997 384.38 C 900.5814999999998 383.65999999999997 902.1614999999997 384.3 903.8214999999997 384.79 C 922.4714999999997 390.29 939.4114999999997 399.74 956.9914999999996 407.72 C 959.6714999999996 408.93 961.1414999999996 410.31 958.6914999999997 413.31 C 948.0414999999997 426.34 937.4914999999996 439.38 924.4614999999997 450.26 C 902.1314999999996 468.89 875.8214999999997 477.39 847.5714999999997 478.84999999999997 C 820.1315 480.27 792.5715 479.14 765.8915 470.94 z" stroke-linecap="round" />
</g>
		<g transform="matrix(1 0 0 1 228.69 67.3)"  >
<path style="stroke: none; stroke-width: 1; stroke-dasharray: none; stroke-linecap: butt; stroke-dashoffset: 0; stroke-linejoin: miter; stroke-miterlimit: 4; fill: rgb(228,0,38); fill-rule: nonzero; opacity: 1;" vector-effect="non-scaling-stroke"  transform=" translate(-732.01, -354.36)" d="M 911.3415 251.38 C 913.6514999999999 252.22 912.6015 255.22 912.5015 257.23 C 910.6614999999999 295.81 901.4114999999999 332.13 880.3915 365.07000000000005 C 863.2814999999999 391.89000000000004 842.0314999999999 414.64000000000004 815.0414999999999 431.4200000000001 C 789.7615 447.1500000000001 762.2014999999999 456.07000000000005 732.0314999999999 457.2200000000001 C 713.5714999999999 457.93000000000006 695.4514999999999 457.2100000000001 677.4614999999999 453.1000000000001 C 676.6514999999999 452.9200000000001 675.8314999999999 452.7300000000001 675.0514999999999 452.4600000000001 C 674.7914999999999 452.3700000000001 674.6215 452.0200000000001 674.0614999999999 451.4200000000001 C 683.8414999999999 450.3500000000001 693.3014999999999 449.12000000000006 702.7914999999999 448.30000000000007 C 736.3915 445.4100000000001 766.4514999999999 433.11000000000007 793.7415 413.82000000000005 C 804.9715 405.88000000000005 813.5915 395.13000000000005 822.1614999999999 384.47 C 834.2415 369.45000000000005 843.3515 352.59000000000003 852.6914999999999 335.87 C 854.6315 332.39 857.2114999999999 329.24 858.2214999999999 325.27 C 858.4714999999999 324.32 858.9114999999999 323.25 857.8314999999999 322.59 C 856.9214999999999 322.02 856.3514999999999 322.98999999999995 855.7114999999999 323.42999999999995 C 829.3614999999999 341.16999999999996 799.6714999999999 349.7699999999999 768.9614999999999 356.13999999999993 C 738.6414999999998 362.42999999999995 707.9814999999999 364.37999999999994 677.1814999999999 365.5799999999999 C 636.7515 367.1599999999999 599.2514999999999 378.7199999999999 564.4314999999999 399.17999999999995 C 560.3314999999999 401.59 556.1714999999999 403.9 552.0514999999999 406.25999999999993 C 551.7615 405.91999999999996 551.4714999999999 405.5899999999999 551.1914999999999 405.25999999999993 C 559.3014999999999 394.7699999999999 567.7615 384.60999999999996 577.2715 375.2799999999999 C 598.5714999999999 354.3999999999999 624.6015 340.9799999999999 650.9314999999999 328.05999999999995 C 670.4914999999999 318.46999999999997 691.7014999999999 315.2699999999999 713.0015 312.0899999999999 C 744.3715 307.4099999999999 776.1015 307.5799999999999 807.5514999999999 304.0299999999999 C 824.5314999999999 302.1199999999999 841.3114999999999 299.0599999999999 856.8314999999999 291.9599999999999 C 876.0514999999999 283.17999999999995 893.1214999999999 271.05999999999995 907.2314999999999 255.07999999999993 C 908.4715 253.68 909.3015 250.63 911.3415 251.38 z" stroke-linecap="round" />
</g>
		<g transform="matrix(1 0 0 1 317.57 -54.6)"  >
<path style="stroke: none; stroke-width: 1; stroke-dasharray: none; stroke-linecap: butt; stroke-dashoffset: 0; stroke-linejoin: miter; stroke-miterlimit: 4; fill: rgb(228,0,38); fill-rule: nonzero; opacity: 1;" vector-effect="non-scaling-stroke"  transform=" translate(-820.89, -232.47)" d="M 881.6415 180.38 C 881.8014999999999 191.82999999999998 883.7014999999999 203.22 881.6115 214.74 C 880.1614999999999 222.73000000000002 881.1315 230.99 880.0515 239.12 C 877.4615 258.57 865.5915 270.37 849.0015000000001 278.92 C 831.1215000000001 288.14000000000004 812.0215000000001 288.82 792.6015000000001 288.34000000000003 C 783.1215000000001 288.1 773.6415000000001 288.28000000000003 764.1615 288.22 C 762.5915 288.21000000000004 760.8915000000001 288.82000000000005 759.2015 287.55 C 763.6415000000001 281.82 770.6115 280.39 776.4215 277.27000000000004 C 796.3115 266.6 815.1915 254.73000000000005 830.8515 238.12000000000003 C 848.0215 219.90000000000003 862.9715 199.99000000000004 877.0815 179.39000000000004 C 877.8715 178.25000000000006 878.1615 176.09000000000003 880.0215000000001 176.55000000000004 C 881.6715 176.96 881.6215 178.98 881.6415 180.38 z" stroke-linecap="round" />
</g>
		<g transform="matrix(1 0 0 1 255.93 -83.59)"  >
<path style="stroke: none; stroke-width: 1; stroke-dasharray: none; stroke-linecap: butt; stroke-dashoffset: 0; stroke-linejoin: miter; stroke-miterlimit: 4; fill: rgb(228,0,38); fill-rule: nonzero; opacity: 1;" vector-effect="non-scaling-stroke"  transform=" translate(-759.25, -203.48)" d="M 674.7515 304.57 C 684.5915 298.26 695.5314999999999 294.48 705.1814999999999 288.26 C 726.5514999999999 274.49 748.6415 261.61 767.1514999999999 243.93 C 785.4214999999999 226.48000000000002 798.5115 205.44 805.4715 181.13 C 809.1215 168.37 811.0314999999999 155.1 810.9715 141.66 C 810.9515 137.72 809.6415 136.79999999999998 805.7814999999999 136.59 C 785.3314999999999 135.47 766.2415 140.86 747.4614999999999 148.03 C 746.0014999999999 148.58 744.6314999999998 149.8 742.4814999999999 148.99 C 750.4014999999998 140.26000000000002 760.4214999999999 135.09 770.5814999999999 130.26000000000002 C 789.2114999999999 121.41000000000003 807.8814999999998 112.64000000000001 827.2814999999999 105.54000000000002 C 828.9915 104.91000000000003 830.7014999999999 104.24000000000002 832.4514999999999 103.73000000000002 C 840.4214999999999 101.36000000000001 840.4814999999999 101.37000000000002 841.7715 109.98000000000002 C 848.7115 156.26000000000002 837.5514999999999 197.05 805.0015 231.40000000000003 C 785.0414999999999 252.47000000000003 761.2515 268.04 735.4214999999999 280.94000000000005 C 716.3014999999999 290.49000000000007 696.4014999999999 297.9100000000001 676.1315 304.47 C 675.7115 304.61 675.2115 304.54 674.7515 304.57 z" stroke-linecap="round" />
</g>
		<g transform="matrix(1 0 0 1 146.96 -109.55)"  >
<path style="stroke: none; stroke-width: 1; stroke-dasharray: none; stroke-linecap: butt; stroke-dashoffset: 0; stroke-linejoin: miter; stroke-miterlimit: 4; fill: rgb(228,0,38); fill-rule: nonzero; opacity: 1;" vector-effect="non-scaling-stroke"  transform=" translate(-650.28, -177.51)" d="M 616.9015 326.04 C 616.4815000000001 326.3 616.0415 326.57 615.5715 326.71000000000004 C 615.3116 326.78000000000003 614.9715 326.59000000000003 613.8015 326.31000000000006 C 620.7115 317.2200000000001 627.3415 308.37000000000006 634.1115 299.62000000000006 C 648.7015 280.74000000000007 662.5715 261.37000000000006 671.9715 239.29000000000008 C 679.3115 222.04000000000008 683.9415 203.88000000000008 685.6115 185.27000000000007 C 687.2015 167.55000000000007 683.0115 150.50000000000006 675.5515 134.40000000000006 C 667.3415 116.68000000000006 657.5615 99.85000000000007 645.8215 84.21000000000006 C 643.9315 81.69000000000007 641.7315 79.40000000000006 639.6115 77.06000000000006 C 633.0414999999999 69.80000000000005 632.9515 69.66000000000005 624.1215 74.32000000000006 C 612.3515 80.52000000000007 600.7914999999999 87.11000000000007 588.7715 95.06000000000006 C 591.9815 84.77000000000007 597.6415 77.29000000000006 603.0115 69.75000000000006 C 612.8415 55.93000000000006 622.9014999999999 42.290000000000056 635.0514999999999 30.320000000000057 C 637.4714999999999 27.940000000000058 639.6114999999999 27.660000000000057 641.9314999999999 29.520000000000056 C 654.1114999999999 39.290000000000056 667.7414999999999 47.66000000000005 676.0015 61.45000000000006 C 688.7115 82.62000000000006 699.8213999999999 104.53000000000006 705.5114 128.86000000000007 C 709.0214 143.85000000000008 711.3914 158.96000000000006 711.7515 174.31000000000006 C 712.2315 194.78000000000006 707.5414999999999 214.37000000000006 699.4114999999999 233.01000000000005 C 682.0115 272.9 653.7815 303.35 616.9015 326.04 z" stroke-linecap="round" />
</g>
		<g transform="matrix(1 0 0 1 2.97 -62.05)"  >
<path style="stroke: none; stroke-width: 1; stroke-dasharray: none; stroke-linecap: butt; stroke-dashoffset: 0; stroke-linejoin: miter; stroke-miterlimit: 4; fill: rgb(228,0,38); fill-rule: nonzero; opacity: 1;" vector-effect="non-scaling-stroke"  transform=" translate(-506.29, -225.02)" d="M 633.7515 205.47 C 638.3213999999999 233.23 634.0015 260.37 621.0915 285.58 C 606.3215 314.43 588.5415 341.36 567.0515 365.74 C 560.6715 372.99 553.3415 379.21000000000004 545.8715000000001 385.36 C 548.6515 380.35 552.7615000000001 376.37 556.1215000000001 371.84000000000003 C 565.1215000000001 359.69000000000005 570.8915000000001 345.83000000000004 577.8814000000001 332.62 C 592.2114000000001 305.52 596.6414000000001 276.3 595.9614000000001 246.09 C 595.6414000000001 231.97 592.0514000000002 218.49 586.2814000000002 205.59 C 576.5114000000002 183.78 562.6814000000002 164.68 546.9114000000002 146.92000000000002 C 535.9614000000001 134.59 524.3514000000002 122.88000000000002 512.3214000000002 111.60000000000002 C 509.53140000000013 108.97000000000003 507.53140000000013 108.90000000000002 504.77140000000014 111.41000000000003 C 486.46140000000014 128.11 467.01140000000015 143.69000000000003 450.6014000000001 162.3 C 425.8014000000001 190.42000000000002 410.7314000000001 223.01000000000002 411.27140000000014 261.15 C 411.68140000000017 289.88 419.37140000000016 316.79999999999995 433.51140000000015 342.15 C 444.01140000000015 360.96 456.80140000000017 377.75 471.37140000000016 393.39 C 471.70140000000015 393.75 471.9714000000002 394.15999999999997 472.27140000000014 394.55 C 452.80140000000017 381.24 437.08140000000014 364.27 423.94140000000016 344.86 C 415.64140000000015 332.6 406.1714000000002 321.04 399.5414000000002 307.77 C 392.50140000000016 293.68 383.30140000000017 280.38 380.7614000000002 264.42999999999995 C 377.6014000000002 244.51999999999995 375.2814000000002 224.44999999999996 378.8914000000002 204.35999999999996 C 381.2314000000002 191.27999999999994 386.6414000000002 179.09999999999997 393.5514000000002 167.92999999999995 C 405.6314000000002 148.39999999999995 418.6814000000002 129.39999999999995 435.5214000000002 113.52999999999994 C 452.1014000000002 97.89999999999995 470.0914000000002 83.90999999999994 488.1014000000002 69.96999999999994 C 493.75140000000016 65.59999999999994 499.6014000000002 61.46999999999994 505.0914000000002 56.89999999999994 C 507.3614000000002 55.00999999999994 508.9714000000002 55.14999999999994 511.2614000000002 56.51999999999994 C 524.2914000000002 64.31999999999994 536.6714000000002 73.00999999999993 548.2514000000002 82.82999999999994 C 565.7814000000002 97.68999999999994 583.9614000000003 111.96999999999994 597.7714000000002 130.55999999999995 C 614.5715 153.15 629.1115 177.3 633.7515 205.47 z" stroke-linecap="round" />
</g>
		<g transform="matrix(1 0 0 1 -140.58 -110.75)"  >
<path style="stroke: none; stroke-width: 1; stroke-dasharray: none; stroke-linecap: butt; stroke-dashoffset: 0; stroke-linejoin: miter; stroke-miterlimit: 4; fill: rgb(228,0,38); fill-rule: nonzero; opacity: 1;" vector-effect="non-scaling-stroke"  transform=" translate(-362.74, -176.31)" d="M 425.2615 95.03 C 414.3115 90.93 404.7815 84.49000000000001 394.7615 78.97 C 380.4615 71.09 384.7115 69.87 373.05150000000003 81.98 C 352.59150000000005 103.24000000000001 337.8215 128.14 329.0715 156.05 C 316.92150000000004 194.78 323.9015 231.07 347.11150000000004 264.23 C 355.5115 276.23 364.3715 287.88 372.29150000000004 300.23 C 376.85150000000004 307.34000000000003 382.65150000000006 313.65000000000003 387.77150000000006 320.41 C 388.89150000000006 321.90000000000003 390.5015000000001 323.29 390.48150000000004 325.99 C 383.46150000000006 322.86 378.05150000000003 317.92 372.46150000000006 313.45 C 351.36150000000004 296.55 333.36150000000004 277.06 320.70150000000007 252.76 C 313.0515000000001 238.09 305.73150000000004 223.6 302.7315000000001 207.06 C 298.5615000000001 184.03 299.6315000000001 161.5 305.6415000000001 138.93 C 315.75150000000014 101 333.5715000000001 67.22000000000001 359.05150000000015 37.43000000000001 C 362.0715000000001 33.900000000000006 365.30150000000015 30.53000000000001 369.0815000000001 27.730000000000008 C 370.3915000000001 26.76000000000001 371.24150000000014 25.980000000000008 372.8215000000001 27.470000000000006 C 393.7815 47.24 411.6815 69.4 425.2615 95.03 z" stroke-linecap="round" />
</g>
</g>
</g>
<g transform="matrix(0.81 0 0 0.81 558.47 209.92)" style="" id="9c883179-6067-4c7b-9277-c35bd7c59690"  >
		<text xml:space="preserve" font-family="Lato" font-size="79" font-style="normal" font-weight="400" style="stroke: none; stroke-width: 1; stroke-dasharray: none; stroke-linecap: butt; stroke-dashoffset: 0; stroke-linejoin: miter; stroke-miterlimit: 4; fill: rgb(228,0,38); fill-rule: nonzero; opacity: 0.92; white-space: pre;" ><tspan x="-443.99" y="24.82" >معرض زهور الوردة الحمراء</tspan></text>
</g>
</svg>